<svg xmlns="http://www.w3.org/2000/svg" id="canvas" viewBox="183.146 237.997 838.572 102.197"><path d="M 223.64,254.04 C 222.99 254.80, 222.81 255.71, 222.56 257.66 C 222.31 259.62, 222.21 260.98, 222.38 263.81 C 222.55 266.65, 223.02 268.50, 223.41 271.84 C 223.81 275.18, 224.02 277.07, 224.37 280.51 C 224.72 283.95, 224.88 285.76, 225.16 289.02 C 225.45 292.29, 225.49 293.95, 225.78 296.84 C 226.06 299.74, 226.25 301.15, 226.59 303.52 C 226.94 305.89, 227.17 306.97, 227.49 308.68 C 227.81 310.39, 227.93 311.06, 228.19 312.07 C 228.46 313.08, 228.51 313.31, 228.83 313.71 C 229.14 314.11, 229.50 314.05, 229.77 314.08 C 230.04 314.12, 230.19 313.79, 230.19 313.88 C 230.18 313.97, 229.65 314.39, 229.73 314.54 C 229.81 314.70, 230.18 314.80, 230.58 314.65 C 230.99 314.49, 231.40 314.36, 231.74 313.78 C 232.08 313.20, 232.19 312.89, 232.28 311.75 C 232.38 310.61, 232.36 309.85, 232.23 308.08 C 232.11 306.30, 231.93 305.23, 231.67 302.87 C 231.41 300.51, 231.27 299.14, 230.93 296.28 C 230.58 293.42, 230.29 291.80, 229.95 288.56 C 229.61 285.33, 229.44 283.53, 229.22 280.11 C 229.01 276.68, 228.97 274.80, 228.87 271.44 C 228.78 268.08, 229.02 266.15, 228.75 263.31 C 228.48 260.47, 228.09 259.13, 227.50 257.23 C 226.92 255.34, 226.60 254.49, 225.82 253.85 C 225.05 253.22, 224.30 253.28, 223.64 254.04" style="stroke: black; fill: black;"/><path d="M 187.31,253.74 C 187.91 254.07, 188.08 253.93, 189.15 253.84 C 190.22 253.75, 190.75 253.77, 192.67 253.31 C 194.60 252.84, 195.79 252.30, 198.78 251.52 C 201.76 250.74, 203.71 250.14, 207.60 249.39 C 211.48 248.64, 213.79 248.32, 218.22 247.78 C 222.65 247.24, 225.16 247.02, 229.74 246.70 C 234.33 246.37, 236.79 246.24, 241.14 246.15 C 245.49 246.06, 247.71 246.06, 251.51 246.24 C 255.31 246.43, 257.12 246.67, 260.14 247.08 C 263.16 247.49, 264.48 247.75, 266.62 248.29 C 268.76 248.84, 269.57 249.07, 270.84 249.79 C 272.10 250.50, 272.40 250.88, 272.95 251.87 C 273.49 252.86, 273.47 253.38, 273.56 254.75 C 273.65 256.11, 273.50 256.89, 273.38 258.69 C 273.27 260.50, 273.12 261.58, 272.99 263.76 C 272.87 265.95, 272.78 267.24, 272.78 269.63 C 272.77 272.01, 272.79 273.29, 272.97 275.68 C 273.15 278.07, 273.28 279.32, 273.69 281.56 C 274.09 283.81, 274.36 284.97, 274.99 286.91 C 275.62 288.84, 275.98 289.78, 276.82 291.24 C 277.65 292.69, 278.07 293.42, 279.17 294.19 C 280.27 294.95, 281.10 295.21, 282.33 295.05 C 283.55 294.90, 284.36 294.44, 285.29 293.41 C 286.22 292.39, 286.56 291.56, 286.98 289.94 C 287.40 288.31, 287.34 287.24, 287.37 285.29 C 287.40 283.34, 287.24 282.13, 287.14 280.18 C 287.04 278.23, 286.91 277.19, 286.88 275.55 C 286.85 273.91, 286.85 273.16, 286.98 271.99 C 287.11 270.82, 287.15 270.34, 287.52 269.69 C 287.88 269.04, 288.02 268.95, 288.80 268.73 C 289.58 268.51, 290.06 268.54, 291.41 268.57 C 292.76 268.60, 293.61 268.66, 295.55 268.87 C 297.49 269.09, 298.70 269.26, 301.14 269.65 C 303.57 270.04, 304.99 270.31, 307.74 270.81 C 310.50 271.31, 312.07 271.60, 314.92 272.16 C 317.76 272.72, 319.30 273.17, 321.98 273.61 C 324.66 274.06, 326.00 274.33, 328.32 274.39 C 330.64 274.45, 332.45 274.46, 333.57 273.92 C 334.69 273.38, 334.80 272.56, 333.92 271.71 C 333.03 270.85, 331.31 270.38, 329.15 269.66 C 326.98 268.93, 325.70 268.70, 323.09 268.08 C 320.47 267.47, 318.92 267.21, 316.09 266.58 C 313.25 265.95, 311.71 265.54, 308.92 264.93 C 306.13 264.32, 304.71 263.98, 302.13 263.55 C 299.54 263.12, 298.25 262.87, 295.99 262.78 C 293.73 262.69, 292.67 262.73, 290.83 263.10 C 288.99 263.46, 288.17 263.78, 286.79 264.62 C 285.40 265.45, 284.83 266.02, 283.92 267.27 C 283.00 268.52, 282.74 269.30, 282.22 270.88 C 281.70 272.45, 281.62 273.32, 281.34 275.15 C 281.05 276.99, 280.98 278.06, 280.81 280.06 C 280.64 282.06, 280.53 283.30, 280.49 285.16 C 280.44 287.01, 280.46 288.01, 280.60 289.35 C 280.74 290.70, 280.90 291.24, 281.20 291.89 C 281.51 292.54, 281.91 292.67, 282.13 292.59 C 282.36 292.51, 282.47 292.21, 282.32 291.51 C 282.18 290.80, 281.84 290.28, 281.39 289.05 C 280.95 287.83, 280.57 287.05, 280.11 285.37 C 279.66 283.70, 279.42 282.67, 279.12 280.67 C 278.83 278.66, 278.72 277.54, 278.63 275.35 C 278.54 273.16, 278.61 271.99, 278.68 269.72 C 278.75 267.46, 278.91 266.24, 278.99 264.04 C 279.07 261.83, 279.19 260.73, 279.07 258.69 C 278.96 256.65, 278.93 255.65, 278.42 253.83 C 277.90 252.01, 277.58 251.11, 276.51 249.58 C 275.44 248.06, 274.81 247.36, 273.07 246.20 C 271.34 245.05, 270.32 244.52, 267.83 243.81 C 265.35 243.10, 263.88 242.93, 260.63 242.64 C 257.39 242.35, 255.53 242.39, 251.61 242.37 C 247.69 242.36, 245.46 242.41, 241.04 242.56 C 236.62 242.71, 234.15 242.86, 229.51 243.14 C 224.87 243.42, 222.35 243.60, 217.84 243.96 C 213.33 244.31, 211.02 244.55, 206.97 244.91 C 202.92 245.27, 200.82 245.23, 197.58 245.74 C 194.34 246.24, 192.83 246.59, 190.75 247.44 C 188.66 248.28, 188.07 249.03, 187.15 249.98 C 186.23 250.93, 186.12 251.41, 186.15 252.17 C 186.19 252.92, 186.71 253.40, 187.31 253.74" style="stroke: black; fill: black;"/><path d="M 347.14,270.32 C 346.99 269.49, 346.59 268.97, 345.53 268.29 C 344.48 267.62, 343.68 267.14, 341.89 266.94 C 340.10 266.74, 338.78 266.74, 336.59 267.29 C 334.40 267.85, 333.16 268.42, 330.95 269.72 C 328.74 271.01, 327.48 271.92, 325.53 273.76 C 323.59 275.61, 322.52 276.80, 321.23 278.95 C 319.93 281.10, 319.41 282.41, 319.05 284.54 C 318.68 286.66, 318.78 287.79, 319.40 289.57 C 320.02 291.35, 320.68 292.24, 322.13 293.43 C 323.58 294.62, 324.67 295.09, 326.65 295.51 C 328.63 295.94, 329.83 295.88, 332.01 295.56 C 334.19 295.24, 335.38 294.86, 337.54 293.91 C 339.70 292.95, 340.85 292.27, 342.79 290.78 C 344.74 289.29, 345.70 288.32, 347.26 286.47 C 348.82 284.61, 349.62 283.47, 350.60 281.52 C 351.58 279.58, 352.06 278.27, 352.16 276.74 C 352.26 275.22, 351.74 274.39, 351.10 273.91 C 350.47 273.44, 349.70 273.60, 348.99 274.37 C 348.28 275.13, 347.65 276.03, 347.56 277.74 C 347.46 279.44, 347.70 280.93, 348.51 282.91 C 349.32 284.88, 350.25 285.94, 351.60 287.59 C 352.95 289.25, 353.71 289.98, 355.25 291.16 C 356.79 292.34, 357.64 292.83, 359.30 293.50 C 360.95 294.17, 361.84 294.39, 363.51 294.49 C 365.19 294.60, 366.08 294.51, 367.67 294.04 C 369.25 293.57, 370.08 293.16, 371.44 292.14 C 372.80 291.13, 373.42 290.41, 374.48 288.97 C 375.54 287.54, 376.05 286.62, 376.75 284.98 C 377.44 283.34, 377.91 282.17, 377.96 280.77 C 378.00 279.37, 377.50 278.51, 376.97 277.98 C 376.43 277.46, 375.73 277.55, 375.29 278.16 C 374.84 278.76, 374.56 279.61, 374.72 281.00 C 374.89 282.39, 375.22 283.55, 376.12 285.11 C 377.02 286.68, 377.95 287.53, 379.22 288.84 C 380.50 290.14, 381.24 290.76, 382.48 291.63 C 383.72 292.50, 384.38 292.86, 385.43 293.19 C 386.49 293.52, 387.04 293.42, 387.75 293.27 C 388.46 293.13, 388.72 292.87, 388.96 292.45 C 389.20 292.03, 389.04 291.59, 388.95 291.18 C 388.86 290.76, 388.76 290.77, 388.50 290.37 C 388.25 289.98, 388.19 289.74, 387.69 289.19 C 387.18 288.64, 386.68 288.45, 385.97 287.62 C 385.26 286.79, 384.81 286.28, 384.13 285.05 C 383.46 283.83, 383.34 282.87, 382.60 281.49 C 381.86 280.12, 381.46 279.23, 380.43 278.20 C 379.41 277.17, 378.69 276.64, 377.48 276.33 C 376.27 276.01, 375.47 276.07, 374.37 276.62 C 373.28 277.18, 372.69 277.86, 371.99 279.09 C 371.30 280.32, 371.34 281.39, 370.89 282.76 C 370.44 284.13, 370.30 284.88, 369.76 285.95 C 369.22 287.02, 368.89 287.45, 368.17 288.11 C 367.46 288.77, 367.07 288.98, 366.21 289.26 C 365.35 289.53, 364.87 289.58, 363.87 289.49 C 362.88 289.41, 362.30 289.29, 361.25 288.83 C 360.20 288.37, 359.55 288.07, 358.62 287.17 C 357.68 286.27, 357.22 285.68, 356.59 284.32 C 355.96 282.96, 355.96 281.92, 355.47 280.35 C 354.98 278.79, 354.81 277.78, 354.15 276.49 C 353.49 275.21, 353.08 274.59, 352.17 273.93 C 351.26 273.27, 350.58 272.97, 349.61 273.19 C 348.64 273.41, 348.13 273.93, 347.31 275.05 C 346.48 276.17, 346.38 277.25, 345.50 278.79 C 344.61 280.34, 344.12 281.31, 342.88 282.79 C 341.64 284.27, 340.85 285.04, 339.31 286.20 C 337.78 287.35, 336.85 287.85, 335.20 288.57 C 333.54 289.28, 332.60 289.48, 331.04 289.78 C 329.48 290.09, 328.66 290.12, 327.40 290.10 C 326.13 290.08, 325.51 290.03, 324.70 289.67 C 323.89 289.32, 323.55 289.10, 323.36 288.32 C 323.17 287.54, 323.23 287.01, 323.75 285.78 C 324.27 284.55, 324.78 283.67, 325.97 282.17 C 327.15 280.67, 328.06 279.71, 329.68 278.28 C 331.30 276.86, 332.38 276.04, 334.07 275.04 C 335.76 274.05, 336.64 273.72, 338.15 273.32 C 339.66 272.91, 340.40 273.09, 341.61 273.03 C 342.83 272.96, 343.28 273.12, 344.22 273.00 C 345.16 272.88, 345.73 272.96, 346.31 272.43 C 346.89 271.89, 347.30 271.14, 347.14 270.32" style="stroke: black; fill: black;"/><path d="M 373.15,253.53 C 373.44 252.80, 373.49 252.98, 373.42 253.26 C 373.35 253.54, 373.10 254.50, 372.81 254.92 C 372.51 255.34, 372.22 254.92, 371.93 255.36 C 371.64 255.79, 371.35 256.79, 371.36 257.10 C 371.37 257.42, 371.61 257.66, 371.97 256.95 C 372.33 256.23, 372.86 254.27, 373.15 253.53" style="stroke: black; fill: black;"/><path d="M 401.04,273.84 C 400.31 274.44, 399.50 275.30, 399.63 276.46 C 399.76 277.62, 400.56 279.22, 401.69 279.66 C 402.81 280.10, 404.49 279.59, 405.24 278.67 C 405.98 277.76, 405.80 276.13, 405.41 275.08 C 405.01 274.04, 404.13 273.70, 403.26 273.45 C 402.38 273.21, 401.76 273.24, 401.04 273.84" style="stroke: black; fill: black;"/><path d="M 403.97,292.34 C 404.65 292.17, 404.80 291.98, 405.40 291.31 C 406.00 290.63, 406.38 290.17, 406.96 288.95 C 407.53 287.73, 407.71 286.80, 408.29 285.22 C 408.88 283.64, 409.18 282.60, 409.88 281.03 C 410.58 279.47, 410.99 278.61, 411.81 277.39 C 412.62 276.17, 413.11 275.63, 413.95 274.94 C 414.80 274.25, 415.23 274.05, 416.05 273.94 C 416.87 273.83, 417.25 273.95, 418.07 274.39 C 418.89 274.83, 419.30 275.23, 420.15 276.14 C 421.00 277.05, 421.45 277.69, 422.32 278.94 C 423.19 280.20, 423.64 280.97, 424.49 282.41 C 425.33 283.84, 425.69 284.66, 426.53 286.13 C 427.37 287.60, 427.76 288.42, 428.69 289.75 C 429.62 291.08, 430.11 291.76, 431.18 292.79 C 432.25 293.82, 432.80 294.30, 434.04 294.92 C 435.29 295.54, 436.02 295.80, 437.39 295.90 C 438.75 296.00, 439.54 295.87, 440.87 295.42 C 442.20 294.96, 442.84 294.53, 444.02 293.62 C 445.21 292.71, 445.76 292.09, 446.79 290.87 C 447.82 289.66, 448.40 288.87, 449.17 287.55 C 449.94 286.22, 450.38 285.32, 450.64 284.26 C 450.90 283.19, 450.66 282.58, 450.48 282.24 C 450.30 281.89, 449.88 282.01, 449.73 282.53 C 449.59 283.05, 449.45 283.70, 449.77 284.82 C 450.09 285.94, 450.45 286.83, 451.35 288.13 C 452.25 289.43, 453.04 290.16, 454.27 291.33 C 455.50 292.50, 456.22 293.11, 457.50 293.98 C 458.78 294.85, 459.54 295.23, 460.68 295.69 C 461.82 296.15, 462.35 296.25, 463.22 296.27 C 464.09 296.29, 464.52 296.06, 465.03 295.78 C 465.53 295.50, 465.68 295.28, 465.75 294.87 C 465.82 294.46, 465.54 294.08, 465.40 293.73 C 465.26 293.39, 465.22 293.44, 465.05 293.15 C 464.88 292.86, 464.91 292.70, 464.54 292.30 C 464.16 291.90, 463.88 291.74, 463.17 291.17 C 462.46 290.61, 461.85 290.28, 460.98 289.48 C 460.10 288.69, 459.60 288.23, 458.80 287.18 C 457.99 286.14, 457.75 285.38, 456.97 284.25 C 456.19 283.12, 455.87 282.41, 454.89 281.52 C 453.91 280.62, 453.29 280.17, 452.09 279.78 C 450.89 279.39, 450.11 279.28, 448.88 279.56 C 447.65 279.84, 446.94 280.28, 445.92 281.20 C 444.90 282.12, 444.57 282.98, 443.77 284.16 C 442.97 285.35, 442.63 286.08, 441.92 287.14 C 441.21 288.20, 440.82 288.71, 440.20 289.45 C 439.58 290.20, 439.33 290.49, 438.82 290.86 C 438.31 291.23, 438.13 291.31, 437.63 291.31 C 437.13 291.31, 436.87 291.24, 436.31 290.86 C 435.76 290.48, 435.48 290.20, 434.85 289.40 C 434.23 288.60, 433.89 288.04, 433.21 286.86 C 432.52 285.68, 432.18 284.95, 431.44 283.49 C 430.71 282.03, 430.41 281.16, 429.55 279.56 C 428.68 277.96, 428.25 277.00, 427.11 275.48 C 425.98 273.96, 425.32 273.12, 423.87 271.97 C 422.42 270.83, 421.54 270.29, 419.86 269.76 C 418.18 269.24, 417.20 269.13, 415.47 269.34 C 413.75 269.55, 412.84 269.91, 411.25 270.81 C 409.66 271.72, 408.90 272.43, 407.53 273.87 C 406.16 275.31, 405.52 276.25, 404.39 278.01 C 403.26 279.78, 402.63 280.87, 401.87 282.69 C 401.12 284.52, 400.83 285.58, 400.62 287.12 C 400.40 288.66, 400.51 289.40, 400.78 290.41 C 401.05 291.42, 401.33 291.78, 401.97 292.16 C 402.60 292.55, 403.28 292.51, 403.97 292.34" style="stroke: black; fill: black;"/><path d="M 447.94,259.21 C 447.94 258.40, 447.57 258.23, 447.37 258.40 C 447.17 258.58, 446.93 259.44, 446.94 260.08 C 446.96 260.72, 447.38 260.97, 447.45 261.59 C 447.53 262.21, 447.34 262.99, 447.32 263.17 C 447.31 263.34, 447.26 263.26, 447.39 262.47 C 447.51 261.68, 447.95 260.03, 447.94 259.21" style="stroke: black; fill: black;"/><path d="M 472.84,279.47 C 472.25 280.08, 472.13 280.69, 472.04 281.83 C 471.95 282.98, 472.04 283.78, 472.40 285.19 C 472.76 286.60, 473.13 287.53, 473.85 288.87 C 474.56 290.20, 475.04 290.89, 475.98 291.88 C 476.92 292.86, 477.43 293.32, 478.53 293.79 C 479.63 294.26, 480.31 294.36, 481.48 294.25 C 482.66 294.13, 483.33 293.90, 484.41 293.22 C 485.48 292.54, 485.94 291.98, 486.84 290.85 C 487.75 289.72, 488.08 288.90, 488.92 287.58 C 489.77 286.26, 490.22 285.44, 491.07 284.24 C 491.92 283.04, 492.37 282.38, 493.18 281.58 C 493.98 280.78, 494.35 280.49, 495.09 280.24 C 495.84 279.98, 496.19 280.06, 496.90 280.32 C 497.61 280.59, 497.91 280.85, 498.65 281.55 C 499.38 282.25, 499.71 282.78, 500.57 283.81 C 501.43 284.83, 501.95 285.52, 502.96 286.67 C 503.97 287.82, 504.50 288.45, 505.61 289.56 C 506.73 290.68, 507.28 291.29, 508.54 292.25 C 509.81 293.21, 510.51 293.67, 511.94 294.37 C 513.37 295.08, 514.12 295.41, 515.69 295.77 C 517.27 296.13, 518.29 296.27, 519.82 296.17 C 521.34 296.07, 522.20 295.85, 523.33 295.28 C 524.47 294.71, 525.16 294.13, 525.49 293.32 C 525.81 292.51, 525.57 291.81, 524.96 291.23 C 524.35 290.65, 523.52 290.60, 522.45 290.44 C 521.38 290.27, 520.76 290.39, 519.60 290.39 C 518.45 290.39, 517.76 290.57, 516.68 290.44 C 515.60 290.30, 515.16 290.19, 514.19 289.73 C 513.23 289.27, 512.76 288.93, 511.86 288.14 C 510.97 287.35, 510.59 286.86, 509.71 285.80 C 508.83 284.74, 508.44 284.05, 507.47 282.86 C 506.49 281.66, 505.96 280.94, 504.82 279.83 C 503.69 278.71, 503.12 278.11, 501.78 277.29 C 500.43 276.46, 499.66 276.02, 498.10 275.69 C 496.54 275.37, 495.59 275.33, 493.97 275.66 C 492.36 275.99, 491.52 276.41, 490.02 277.33 C 488.52 278.24, 487.77 278.93, 486.45 280.23 C 485.13 281.53, 484.44 282.41, 483.42 283.83 C 482.40 285.25, 481.92 286.13, 481.33 287.33 C 480.75 288.52, 480.65 289.09, 480.49 289.82 C 480.34 290.56, 480.48 290.80, 480.55 291.00 C 480.62 291.21, 480.82 291.22, 480.84 290.84 C 480.86 290.47, 480.83 290.06, 480.66 289.15 C 480.49 288.23, 480.36 287.51, 479.97 286.26 C 479.59 285.00, 479.32 284.07, 478.71 282.85 C 478.10 281.64, 477.68 281.01, 476.94 280.20 C 476.20 279.39, 475.82 278.97, 475.01 278.82 C 474.19 278.67, 473.44 278.87, 472.84 279.47" style="stroke: black; fill: black;"/><path d="M 545.24,280.91 C 545.35 280.10, 545.15 279.46, 544.39 278.61 C 543.63 277.75, 542.95 277.17, 541.45 276.65 C 539.95 276.13, 538.77 275.90, 536.88 275.99 C 535.00 276.09, 533.86 276.44, 532.02 277.13 C 530.19 277.82, 529.15 278.31, 527.71 279.44 C 526.26 280.58, 525.51 281.37, 524.81 282.81 C 524.11 284.25, 523.98 285.22, 524.22 286.64 C 524.46 288.06, 524.93 288.92, 526.01 289.93 C 527.09 290.94, 528.03 291.36, 529.64 291.69 C 531.26 292.02, 532.30 291.90, 534.08 291.59 C 535.86 291.27, 536.86 290.83, 538.55 290.12 C 540.24 289.40, 541.13 288.85, 542.52 288.00 C 543.92 287.15, 544.61 286.66, 545.51 285.86 C 546.41 285.06, 546.79 284.56, 547.02 284.00 C 547.24 283.44, 546.93 283.06, 546.66 283.07 C 546.38 283.08, 545.85 283.25, 545.64 284.05 C 545.43 284.84, 545.34 285.52, 545.61 287.04 C 545.88 288.55, 546.22 289.56, 546.97 291.61 C 547.72 293.66, 548.28 294.93, 549.35 297.28 C 550.41 299.63, 551.11 300.94, 552.29 303.35 C 553.48 305.76, 554.20 307.03, 555.28 309.33 C 556.36 311.63, 556.91 312.79, 557.70 314.85 C 558.49 316.92, 558.87 317.93, 559.25 319.66 C 559.63 321.40, 559.70 322.18, 559.59 323.54 C 559.47 324.90, 559.32 325.45, 558.68 326.46 C 558.03 327.46, 557.57 327.82, 556.36 328.55 C 555.15 329.28, 554.38 329.60, 552.63 330.09 C 550.89 330.58, 549.84 330.78, 547.64 331.00 C 545.43 331.22, 544.10 331.27, 541.59 331.20 C 539.08 331.14, 537.64 331.02, 535.09 330.67 C 532.53 330.32, 531.11 330.04, 528.80 329.47 C 526.49 328.91, 525.29 328.53, 523.52 327.86 C 521.75 327.19, 520.98 326.79, 519.95 326.11 C 518.92 325.43, 518.62 325.10, 518.38 324.45 C 518.13 323.80, 518.23 323.56, 518.74 322.86 C 519.26 322.16, 519.71 321.83, 520.95 320.95 C 522.20 320.08, 523.04 319.52, 524.96 318.50 C 526.88 317.47, 528.11 316.86, 530.56 315.83 C 533.02 314.79, 534.49 314.21, 537.23 313.32 C 539.97 312.42, 541.75 312.15, 544.26 311.36 C 546.77 310.57, 547.98 310.16, 549.77 309.36 C 551.57 308.56, 552.61 308.11, 553.23 307.35 C 553.84 306.59, 553.73 306.02, 552.85 305.57 C 551.98 305.13, 550.86 305.11, 548.86 305.13 C 546.85 305.16, 545.50 305.16, 542.82 305.68 C 540.15 306.20, 538.41 306.86, 535.48 307.74 C 532.56 308.61, 530.93 308.99, 528.21 310.07 C 525.49 311.15, 524.08 311.78, 521.87 313.13 C 519.66 314.48, 518.62 315.24, 517.17 316.83 C 515.73 318.43, 515.14 319.37, 514.62 321.12 C 514.10 322.88, 514.11 323.93, 514.58 325.61 C 515.05 327.29, 515.61 328.13, 516.97 329.53 C 518.33 330.93, 519.29 331.53, 521.36 332.60 C 523.43 333.68, 524.74 334.14, 527.31 334.91 C 529.89 335.69, 531.41 336.02, 534.23 336.47 C 537.05 336.91, 538.61 337.07, 541.43 337.15 C 544.25 337.24, 545.72 337.21, 548.32 336.87 C 550.92 336.53, 552.21 336.28, 554.42 335.46 C 556.62 334.64, 557.70 334.08, 559.36 332.77 C 561.02 331.45, 561.74 330.60, 562.72 328.87 C 563.71 327.15, 563.99 326.13, 564.30 324.12 C 564.60 322.10, 564.53 321.01, 564.23 318.81 C 563.92 316.60, 563.53 315.43, 562.78 313.08 C 562.04 310.73, 561.50 309.50, 560.50 307.04 C 559.50 304.59, 558.84 303.28, 557.79 300.83 C 556.74 298.37, 556.15 297.09, 555.25 294.79 C 554.35 292.49, 553.99 291.25, 553.29 289.31 C 552.58 287.37, 552.38 286.47, 551.74 285.10 C 551.09 283.73, 550.85 283.29, 550.06 282.47 C 549.28 281.65, 548.77 281.36, 547.81 280.98 C 546.85 280.61, 546.26 280.52, 545.24 280.61 C 544.23 280.70, 543.82 280.99, 542.73 281.44 C 541.64 281.89, 541.10 282.29, 539.80 282.86 C 538.51 283.43, 537.67 283.79, 536.26 284.30 C 534.85 284.80, 534.02 285.05, 532.76 285.38 C 531.50 285.71, 530.87 285.76, 529.97 285.95 C 529.08 286.14, 528.69 286.24, 528.27 286.31 C 527.85 286.38, 527.77 286.45, 527.86 286.30 C 527.96 286.16, 528.14 285.99, 528.74 285.58 C 529.35 285.17, 529.84 284.78, 530.90 284.25 C 531.95 283.73, 532.77 283.35, 534.03 282.97 C 535.29 282.60, 536.03 282.44, 537.20 282.39 C 538.38 282.33, 538.95 282.59, 539.91 282.69 C 540.88 282.80, 541.23 282.90, 542.01 282.90 C 542.80 282.90, 543.19 283.09, 543.83 282.70 C 544.48 282.30, 545.13 281.73, 545.24 280.91" style="stroke: black; fill: black;"/><path d="M 648.12,247.59 C 647.51 248.28, 647.33 249.01, 647.18 250.74 C 647.03 252.46, 646.98 253.67, 647.38 256.20 C 647.77 258.73, 648.32 260.45, 649.15 263.37 C 649.98 266.29, 650.58 267.96, 651.54 270.80 C 652.49 273.65, 652.97 275.14, 653.92 277.60 C 654.87 280.05, 655.40 281.22, 656.29 283.08 C 657.19 284.93, 657.59 285.72, 658.38 286.87 C 659.17 288.01, 659.60 288.29, 660.24 288.79 C 660.88 289.29, 661.11 289.37, 661.58 289.36 C 662.05 289.36, 662.35 289.14, 662.59 288.75 C 662.83 288.36, 662.81 288.17, 662.77 287.41 C 662.72 286.65, 662.71 286.21, 662.34 284.96 C 661.97 283.70, 661.58 282.98, 660.93 281.14 C 660.28 279.30, 659.87 278.16, 659.10 275.76 C 658.33 273.35, 657.83 271.91, 657.06 269.12 C 656.30 266.33, 655.94 264.66, 655.29 261.80 C 654.64 258.94, 654.48 257.20, 653.82 254.82 C 653.16 252.44, 652.70 251.40, 651.99 249.90 C 651.27 248.39, 651.02 247.75, 650.25 247.29 C 649.47 246.83, 648.74 246.90, 648.12 247.59" style="stroke: black; fill: black;"/><path d="M 636.69,253.22 C 637.41 252.94, 637.39 252.24, 637.99 251.51 C 638.59 250.79, 638.63 250.37, 639.68 249.61 C 640.73 248.85, 641.27 248.33, 643.26 247.70 C 645.25 247.08, 646.68 246.67, 649.64 246.48 C 652.60 246.29, 654.53 246.27, 658.06 246.74 C 661.58 247.21, 663.63 247.65, 667.27 248.83 C 670.91 250.01, 672.90 250.86, 676.25 252.64 C 679.60 254.42, 681.31 255.55, 684.01 257.73 C 686.71 259.90, 687.92 261.21, 689.74 263.51 C 691.56 265.81, 692.19 267.05, 693.12 269.24 C 694.05 271.42, 694.34 272.48, 694.39 274.44 C 694.44 276.40, 694.22 277.32, 693.36 279.03 C 692.50 280.74, 691.73 281.47, 690.08 283.01 C 688.42 284.54, 687.31 285.30, 685.09 286.69 C 682.86 288.08, 681.51 288.83, 678.94 289.95 C 676.37 291.06, 674.81 291.47, 672.24 292.28 C 669.68 293.08, 668.32 293.47, 666.10 293.97 C 663.89 294.47, 662.80 294.53, 661.19 294.77 C 659.57 295.01, 659.03 295.02, 658.04 295.16 C 657.04 295.31, 656.67 295.16, 656.20 295.49 C 655.74 295.82, 655.47 296.22, 655.71 296.82 C 655.94 297.41, 656.26 297.89, 657.37 298.46 C 658.49 299.03, 659.34 299.49, 661.29 299.66 C 663.24 299.82, 664.58 299.67, 667.10 299.28 C 669.63 298.89, 671.10 298.55, 673.91 297.70 C 676.72 296.86, 678.31 296.29, 681.16 295.05 C 684.01 293.82, 685.60 293.17, 688.16 291.52 C 690.71 289.87, 691.98 288.89, 693.91 286.80 C 695.85 284.71, 696.78 283.54, 697.82 281.05 C 698.86 278.55, 699.15 277.09, 699.11 274.34 C 699.07 271.60, 698.77 270.08, 697.60 267.33 C 696.43 264.58, 695.46 263.19, 693.26 260.61 C 691.07 258.03, 689.63 256.73, 686.61 254.42 C 683.59 252.10, 681.76 250.95, 678.16 249.05 C 674.56 247.14, 672.48 246.25, 668.61 244.87 C 664.75 243.50, 662.65 242.95, 658.83 242.18 C 655.01 241.41, 653.01 241.07, 649.52 241.01 C 646.04 240.96, 644.12 241.01, 641.40 241.90 C 638.69 242.78, 637.50 243.85, 635.95 245.42 C 634.39 246.98, 633.94 248.21, 633.62 249.71 C 633.30 251.22, 633.73 252.25, 634.35 252.95 C 634.96 253.66, 635.96 253.51, 636.69 253.22" style="stroke: black; fill: black;"/><path d="M 722.80,276.02 C 722.65 275.20, 722.26 274.63, 721.19 274.01 C 720.12 273.39, 719.21 272.95, 717.44 272.93 C 715.67 272.92, 714.35 273.09, 712.35 273.92 C 710.35 274.76, 709.20 275.57, 707.45 277.10 C 705.71 278.62, 704.75 279.64, 703.61 281.55 C 702.47 283.46, 701.98 284.68, 701.75 286.65 C 701.52 288.62, 701.70 289.77, 702.46 291.40 C 703.21 293.03, 703.98 293.82, 705.51 294.82 C 707.03 295.82, 708.12 296.18, 710.10 296.41 C 712.07 296.64, 713.30 296.48, 715.36 295.98 C 717.43 295.47, 718.53 294.93, 720.42 293.88 C 722.31 292.84, 723.26 292.15, 724.81 290.74 C 726.36 289.34, 727.16 288.41, 728.19 286.85 C 729.21 285.29, 729.68 284.31, 729.93 282.94 C 730.19 281.57, 730.02 280.76, 729.47 280.01 C 728.92 279.26, 728.11 278.97, 727.20 279.19 C 726.29 279.41, 725.40 279.96, 724.91 281.11 C 724.43 282.26, 724.35 283.38, 724.77 284.93 C 725.20 286.48, 725.93 287.42, 727.05 288.85 C 728.17 290.28, 728.92 290.99, 730.39 292.08 C 731.86 293.17, 732.70 293.66, 734.39 294.29 C 736.08 294.92, 737.04 295.14, 738.83 295.22 C 740.61 295.30, 741.59 295.21, 743.30 294.72 C 745.00 294.22, 745.87 293.80, 747.35 292.74 C 748.83 291.68, 749.53 291.00, 750.68 289.43 C 751.84 287.85, 752.37 286.90, 753.14 284.87 C 753.90 282.83, 754.14 281.60, 754.53 279.25 C 754.91 276.89, 754.98 275.55, 755.04 273.08 C 755.10 270.60, 754.99 269.23, 754.82 266.87 C 754.64 264.52, 754.57 263.25, 754.18 261.29 C 753.79 259.32, 753.60 258.20, 752.87 257.07 C 752.15 255.93, 751.37 255.53, 750.55 255.62 C 749.73 255.72, 749.13 256.26, 748.76 257.53 C 748.39 258.79, 748.35 259.88, 748.70 261.96 C 749.05 264.04, 749.57 265.49, 750.52 267.94 C 751.47 270.38, 752.27 271.81, 753.45 274.17 C 754.62 276.54, 755.25 277.69, 756.41 279.76 C 757.58 281.83, 758.20 282.84, 759.29 284.53 C 760.38 286.22, 760.84 287.09, 761.87 288.23 C 762.91 289.37, 763.61 289.79, 764.47 290.23 C 765.32 290.67, 765.66 290.54, 766.16 290.42 C 766.66 290.31, 766.79 290.10, 766.96 289.64 C 767.14 289.19, 767.22 289.02, 767.03 288.16 C 766.83 287.30, 766.65 286.60, 765.99 285.33 C 765.33 284.06, 764.66 283.42, 763.72 281.81 C 762.78 280.19, 762.21 279.26, 761.28 277.25 C 760.35 275.25, 759.89 274.13, 759.08 271.79 C 758.28 269.45, 757.99 267.95, 757.25 265.57 C 756.50 263.19, 756.22 261.76, 755.35 259.89 C 754.47 258.02, 753.90 257.11, 752.85 256.23 C 751.80 255.36, 750.98 255.21, 750.10 255.52 C 749.23 255.84, 748.80 256.52, 748.49 257.82 C 748.18 259.12, 748.46 260.13, 748.56 262.01 C 748.67 263.89, 748.92 265.05, 749.02 267.22 C 749.12 269.40, 749.15 270.67, 749.06 272.89 C 748.98 275.12, 748.87 276.34, 748.60 278.36 C 748.32 280.39, 748.17 281.42, 747.70 283.02 C 747.24 284.63, 746.94 285.30, 746.27 286.40 C 745.59 287.50, 745.19 287.90, 744.31 288.54 C 743.44 289.18, 742.94 289.36, 741.90 289.62 C 740.86 289.87, 740.24 289.89, 739.12 289.82 C 738.01 289.75, 737.35 289.66, 736.33 289.25 C 735.30 288.83, 734.77 288.52, 733.99 287.75 C 733.22 286.97, 732.90 286.37, 732.43 285.35 C 731.97 284.34, 732.06 283.62, 731.67 282.68 C 731.28 281.74, 731.13 281.27, 730.50 280.65 C 729.87 280.02, 729.31 279.76, 728.51 279.56 C 727.72 279.37, 727.20 279.36, 726.53 279.67 C 725.86 279.98, 725.75 280.32, 725.17 281.12 C 724.60 281.92, 724.48 282.60, 723.66 283.67 C 722.83 284.75, 722.26 285.46, 721.06 286.48 C 719.86 287.49, 719.10 288.01, 717.66 288.75 C 716.23 289.49, 715.33 289.77, 713.87 290.17 C 712.40 290.57, 711.58 290.67, 710.34 290.77 C 709.11 290.86, 708.50 290.84, 707.69 290.63 C 706.88 290.41, 706.54 290.28, 706.31 289.70 C 706.08 289.11, 706.14 288.68, 706.55 287.71 C 706.97 286.75, 707.41 286.02, 708.40 284.87 C 709.38 283.71, 710.18 282.95, 711.48 281.94 C 712.79 280.93, 713.63 280.40, 714.91 279.80 C 716.19 279.21, 716.83 279.18, 717.86 278.97 C 718.89 278.76, 719.24 278.92, 720.06 278.75 C 720.88 278.59, 721.41 278.68, 721.95 278.14 C 722.50 277.59, 722.95 276.85, 722.80 276.02" style="stroke: black; fill: black;"/><path d="M 747.50,280.14 C 747.96 280.66, 748.19 280.71, 749.22 280.93 C 750.24 281.15, 750.85 281.24, 752.61 281.24 C 754.37 281.24, 755.51 281.14, 758.02 280.92 C 760.54 280.70, 762.19 280.42, 765.18 280.13 C 768.17 279.83, 769.90 279.65, 772.99 279.44 C 776.07 279.23, 777.72 279.22, 780.60 279.08 C 783.48 278.94, 784.92 278.89, 787.40 278.74 C 789.88 278.60, 791.08 278.55, 793.01 278.35 C 794.94 278.16, 795.82 278.18, 797.04 277.76 C 798.27 277.35, 798.72 277.05, 799.14 276.26 C 799.57 275.48, 799.58 274.76, 799.19 273.83 C 798.79 272.91, 798.32 272.20, 797.17 271.64 C 796.01 271.08, 795.09 270.95, 793.41 271.03 C 791.73 271.11, 790.63 271.44, 788.74 272.06 C 786.85 272.68, 785.72 273.08, 783.95 274.11 C 782.18 275.14, 781.20 275.79, 779.90 277.20 C 778.60 278.61, 777.99 279.51, 777.44 281.16 C 776.89 282.81, 776.83 283.84, 777.17 285.44 C 777.51 287.05, 778.00 287.93, 779.14 289.18 C 780.28 290.42, 781.17 290.98, 782.89 291.67 C 784.60 292.35, 785.72 292.53, 787.70 292.60 C 789.69 292.67, 790.82 292.48, 792.82 292.03 C 794.82 291.57, 795.88 291.20, 797.70 290.33 C 799.52 289.46, 800.43 288.85, 801.90 287.70 C 803.37 286.54, 804.19 285.81, 805.05 284.56 C 805.92 283.32, 806.21 282.35, 806.23 281.47 C 806.25 280.58, 805.62 280.12, 805.14 280.13 C 804.65 280.15, 804.02 280.58, 803.79 281.54 C 803.55 282.51, 803.46 283.46, 803.98 284.96 C 804.49 286.46, 805.13 287.55, 806.36 289.04 C 807.59 290.54, 808.57 291.30, 810.12 292.44 C 811.67 293.57, 812.52 293.94, 814.10 294.71 C 815.69 295.48, 816.53 295.85, 818.03 296.27 C 819.54 296.68, 820.42 296.77, 821.63 296.78 C 822.84 296.79, 823.28 296.61, 824.07 296.32 C 824.86 296.02, 825.27 295.85, 825.58 295.32 C 825.89 294.79, 825.84 294.20, 825.60 293.67 C 825.35 293.13, 824.97 293.04, 824.34 292.65 C 823.71 292.25, 823.39 292.01, 822.43 291.68 C 821.47 291.35, 820.72 291.34, 819.53 290.99 C 818.35 290.64, 817.64 290.52, 816.51 289.92 C 815.38 289.32, 814.81 288.97, 813.87 288.00 C 812.94 287.03, 812.58 286.27, 811.84 285.06 C 811.11 283.86, 810.93 283.05, 810.20 281.96 C 809.47 280.87, 809.13 280.31, 808.18 279.62 C 807.22 278.93, 806.51 278.60, 805.42 278.51 C 804.34 278.42, 803.66 278.65, 802.74 279.17 C 801.83 279.70, 801.70 280.30, 800.86 281.13 C 800.03 281.96, 799.67 282.52, 798.57 283.32 C 797.47 284.13, 796.75 284.57, 795.35 285.16 C 793.96 285.75, 793.10 285.99, 791.60 286.28 C 790.10 286.57, 789.24 286.62, 787.85 286.60 C 786.46 286.59, 785.73 286.44, 784.63 286.22 C 783.53 286.01, 783.01 285.87, 782.36 285.53 C 781.72 285.20, 781.51 285.04, 781.40 284.53 C 781.29 284.03, 781.36 283.69, 781.80 283.02 C 782.24 282.36, 782.63 281.90, 783.60 281.19 C 784.58 280.49, 785.33 280.07, 786.69 279.50 C 788.06 278.94, 788.97 278.64, 790.43 278.36 C 791.88 278.08, 792.70 278.26, 793.96 278.11 C 795.22 277.97, 795.82 278.04, 796.71 277.64 C 797.60 277.23, 798.04 276.75, 798.40 276.09 C 798.76 275.43, 798.87 274.86, 798.51 274.33 C 798.16 273.80, 797.79 273.62, 796.64 273.43 C 795.49 273.23, 794.65 273.34, 792.75 273.34 C 790.86 273.34, 789.66 273.36, 787.18 273.42 C 784.70 273.48, 783.25 273.53, 780.36 273.64 C 777.47 273.76, 775.82 273.91, 772.72 274.01 C 769.62 274.11, 767.90 274.11, 764.86 274.14 C 761.82 274.16, 760.13 273.98, 757.52 274.14 C 754.90 274.30, 753.64 274.46, 751.79 274.93 C 749.93 275.41, 749.20 275.83, 748.22 276.50 C 747.24 277.17, 747.04 277.56, 746.89 278.28 C 746.75 279.01, 747.03 279.61, 747.50 280.14" style="stroke: black; fill: black;"/><path d="M 900.01,241.92 C 899.31 242.25, 898.98 242.60, 898.48 243.82 C 897.98 245.04, 897.69 245.91, 897.52 248.00 C 897.36 250.09, 897.45 251.55, 897.66 254.26 C 897.87 256.97, 898.23 258.61, 898.57 261.55 C 898.90 264.50, 898.99 266.09, 899.32 268.98 C 899.65 271.87, 899.77 273.33, 900.21 276.01 C 900.65 278.68, 900.87 279.96, 901.54 282.34 C 902.21 284.73, 902.56 285.85, 903.56 287.92 C 904.56 289.99, 905.13 290.98, 906.54 292.70 C 907.94 294.41, 908.76 295.19, 910.59 296.48 C 912.43 297.77, 913.50 298.32, 915.69 299.16 C 917.89 300.00, 919.14 300.29, 921.57 300.67 C 924.00 301.05, 925.32 301.07, 927.83 301.06 C 930.34 301.05, 931.71 300.93, 934.14 300.61 C 936.58 300.29, 937.82 299.99, 940.00 299.48 C 942.18 298.96, 943.22 298.66, 945.03 298.04 C 946.84 297.42, 947.81 297.07, 949.04 296.39 C 950.27 295.72, 950.57 295.29, 951.18 294.66 C 951.79 294.03, 952.04 293.78, 952.11 293.23 C 952.19 292.69, 951.98 292.26, 951.54 291.94 C 951.10 291.62, 950.75 291.66, 949.91 291.64 C 949.08 291.62, 948.64 291.56, 947.35 291.82 C 946.06 292.07, 945.16 292.45, 943.46 292.92 C 941.75 293.39, 940.82 293.74, 938.82 294.14 C 936.83 294.55, 935.68 294.73, 933.47 294.96 C 931.27 295.20, 930.01 295.30, 927.79 295.32 C 925.57 295.34, 924.43 295.32, 922.38 295.06 C 920.32 294.80, 919.31 294.57, 917.53 294.00 C 915.75 293.42, 914.92 293.08, 913.49 292.18 C 912.06 291.28, 911.47 290.78, 910.39 289.50 C 909.30 288.22, 908.86 287.47, 908.08 285.78 C 907.30 284.09, 907.00 283.15, 906.49 281.04 C 905.98 278.94, 905.85 277.75, 905.54 275.23 C 905.22 272.71, 905.12 271.28, 904.93 268.46 C 904.73 265.64, 904.65 264.05, 904.57 261.13 C 904.49 258.21, 904.62 256.53, 904.52 253.87 C 904.42 251.20, 904.35 249.78, 904.06 247.80 C 903.77 245.83, 903.50 245.12, 903.09 243.99 C 902.67 242.85, 902.60 242.56, 901.99 242.15 C 901.38 241.73, 900.72 241.58, 900.01 241.92" style="stroke: black; fill: black;"/><path d="M 968.99,276.65 C 968.99 275.80, 968.66 275.07, 967.69 274.31 C 966.71 273.55, 965.85 273.08, 964.12 272.86 C 962.38 272.64, 961.11 272.60, 959.02 273.22 C 956.93 273.84, 955.71 274.55, 953.68 275.95 C 951.65 277.34, 950.49 278.32, 948.87 280.21 C 947.24 282.10, 946.42 283.35, 945.55 285.40 C 944.69 287.46, 944.50 288.63, 944.54 290.49 C 944.59 292.35, 944.88 293.28, 945.78 294.69 C 946.69 296.11, 947.50 296.82, 949.07 297.56 C 950.64 298.30, 951.78 298.43, 953.64 298.38 C 955.49 298.33, 956.51 298.00, 958.35 297.32 C 960.18 296.64, 961.15 296.12, 962.79 294.98 C 964.44 293.84, 965.29 293.05, 966.58 291.63 C 967.87 290.21, 968.55 289.32, 969.27 287.90 C 969.98 286.47, 970.23 285.48, 970.17 284.50 C 970.11 283.52, 969.51 283.05, 968.98 282.99 C 968.45 282.93, 967.83 283.33, 967.51 284.20 C 967.20 285.06, 967.00 285.93, 967.40 287.33 C 967.81 288.74, 968.41 289.81, 969.54 291.21 C 970.67 292.60, 971.59 293.25, 973.05 294.30 C 974.52 295.35, 975.29 295.82, 976.87 296.47 C 978.46 297.12, 979.32 297.39, 980.98 297.55 C 982.63 297.71, 983.53 297.68, 985.15 297.28 C 986.76 296.89, 987.58 296.54, 989.05 295.57 C 990.52 294.61, 991.26 293.97, 992.48 292.46 C 993.71 290.94, 994.26 290.02, 995.17 288.01 C 996.08 286.01, 996.48 284.78, 997.02 282.43 C 997.56 280.09, 997.74 278.70, 997.87 276.28 C 998.01 273.85, 997.94 272.53, 997.67 270.31 C 997.40 268.08, 997.17 266.94, 996.52 265.16 C 995.87 263.37, 995.47 262.49, 994.44 261.39 C 993.41 260.28, 992.67 259.81, 991.37 259.61 C 990.07 259.42, 989.10 259.59, 987.92 260.41 C 986.74 261.23, 986.07 262.04, 985.47 263.73 C 984.87 265.42, 984.78 266.65, 984.90 268.87 C 985.02 271.08, 985.36 272.46, 986.08 274.80 C 986.80 277.14, 987.37 278.43, 988.51 280.58 C 989.66 282.73, 990.39 283.80, 991.82 285.56 C 993.25 287.31, 994.05 288.07, 995.67 289.37 C 997.29 290.66, 998.19 291.20, 999.93 292.02 C 1001.66 292.85, 1002.61 293.13, 1004.34 293.49 C 1006.07 293.85, 1006.96 293.87, 1008.58 293.82 C 1010.21 293.78, 1011.04 293.67, 1012.46 293.26 C 1013.88 292.86, 1014.61 292.54, 1015.69 291.80 C 1016.76 291.06, 1017.23 290.55, 1017.84 289.55 C 1018.44 288.55, 1018.66 287.93, 1018.71 286.80 C 1018.75 285.66, 1018.64 284.92, 1018.08 283.89 C 1017.53 282.85, 1016.99 282.28, 1015.93 281.61 C 1014.88 280.93, 1014.13 280.74, 1012.82 280.51 C 1011.51 280.28, 1010.78 280.36, 1009.39 280.46 C 1008.01 280.55, 1007.28 280.66, 1005.91 280.98 C 1004.54 281.30, 1003.76 281.52, 1002.54 282.07 C 1001.32 282.62, 1000.69 283.00, 999.82 283.73 C 998.94 284.46, 998.57 284.94, 998.18 285.72 C 997.78 286.50, 997.76 287.03, 997.83 287.64 C 997.90 288.25, 998.09 288.55, 998.53 288.78 C 998.97 289.00, 999.60 288.80, 1000.04 288.76 C 1000.47 288.72, 1000.44 288.60, 1000.72 288.55 C 1001.00 288.51, 1001.06 288.63, 1001.43 288.53 C 1001.80 288.42, 1001.96 288.25, 1002.57 288.03 C 1003.18 287.81, 1003.59 287.65, 1004.49 287.43 C 1005.40 287.20, 1006.03 287.08, 1007.10 286.91 C 1008.17 286.74, 1008.84 286.66, 1009.84 286.58 C 1010.85 286.50, 1011.37 286.50, 1012.13 286.51 C 1012.88 286.52, 1013.17 286.61, 1013.62 286.63 C 1014.08 286.64, 1014.19 286.59, 1014.39 286.59 C 1014.59 286.59, 1014.65 286.54, 1014.64 286.61 C 1014.63 286.67, 1014.65 286.73, 1014.36 286.90 C 1014.06 287.08, 1013.83 287.22, 1013.18 287.48 C 1012.53 287.74, 1012.06 287.98, 1011.10 288.21 C 1010.15 288.44, 1009.56 288.60, 1008.41 288.64 C 1007.27 288.69, 1006.63 288.68, 1005.37 288.43 C 1004.11 288.18, 1003.41 288.00, 1002.12 287.39 C 1000.83 286.78, 1000.12 286.42, 998.92 285.40 C 997.71 284.38, 997.12 283.77, 996.10 282.30 C 995.08 280.83, 994.57 279.87, 993.80 278.04 C 993.03 276.20, 992.69 275.06, 992.25 273.12 C 991.80 271.17, 991.78 270.01, 991.58 268.32 C 991.38 266.63, 991.40 265.77, 991.25 264.67 C 991.10 263.57, 990.99 263.23, 990.83 262.80 C 990.68 262.38, 990.50 262.34, 990.48 262.53 C 990.46 262.73, 990.53 262.96, 990.74 263.78 C 990.95 264.59, 991.27 265.19, 991.54 266.60 C 991.81 268.00, 992.02 268.94, 992.10 270.79 C 992.19 272.64, 992.16 273.78, 991.96 275.84 C 991.76 277.90, 991.53 279.10, 991.09 281.08 C 990.64 283.06, 990.34 284.12, 989.73 285.74 C 989.12 287.35, 988.78 288.04, 988.05 289.15 C 987.32 290.26, 986.88 290.66, 986.06 291.30 C 985.24 291.94, 984.84 292.12, 983.94 292.34 C 983.04 292.56, 982.53 292.53, 981.55 292.41 C 980.57 292.28, 979.97 292.19, 979.03 291.70 C 978.09 291.20, 977.62 290.83, 976.85 289.94 C 976.08 289.04, 975.83 288.34, 975.17 287.21 C 974.52 286.09, 974.33 285.29, 973.57 284.32 C 972.82 283.35, 972.39 282.93, 971.42 282.38 C 970.44 281.83, 969.75 281.53, 968.70 281.58 C 967.65 281.62, 967.02 281.91, 966.17 282.59 C 965.32 283.28, 965.19 283.97, 964.44 285.00 C 963.68 286.03, 963.38 286.71, 962.40 287.74 C 961.41 288.77, 960.76 289.35, 959.53 290.16 C 958.30 290.97, 957.54 291.29, 956.25 291.79 C 954.97 292.29, 954.23 292.42, 953.09 292.66 C 951.95 292.90, 951.35 293.02, 950.55 292.99 C 949.75 292.96, 949.40 292.93, 949.09 292.51 C 948.78 292.08, 948.73 291.76, 949.00 290.85 C 949.27 289.94, 949.55 289.25, 950.43 287.96 C 951.32 286.67, 952.04 285.78, 953.42 284.42 C 954.80 283.06, 955.82 282.24, 957.32 281.17 C 958.83 280.10, 959.66 279.58, 960.95 279.09 C 962.24 278.60, 962.80 278.77, 963.77 278.71 C 964.75 278.65, 965.03 278.82, 965.82 278.80 C 966.60 278.77, 967.06 279.01, 967.69 278.58 C 968.33 278.16, 968.99 277.51, 968.99 276.65" style="stroke: black; fill: black;"/></svg>